<svg viewBox="0 0 720 348" width="720" height="348" style="max-width:100%;height:auto" xmlns="http://www.w3.org/2000/svg" font-family="ui-sans-serif, system-ui, -apple-system, Segoe UI, Roboto, Helvetica, Arial, sans-serif">
  <defs><marker id="f4arr" viewBox="0 0 10 10" refX="5" refY="5" markerWidth="6" markerHeight="6" orient="auto-start-reverse"><path d="M0,0 L10,5 L0,10 z" fill="#64748b"/></marker></defs>
  <rect x="0" y="0" width="720" height="348" rx="10" fill="#ffffff"/>
  <text x="24" y="26" font-size="15" font-weight="700" fill="#0f172a">Figure 4 · Unlinkable KYC — one person, a different identifier per service</text>
  <rect x="28" y="48" width="232" height="52" rx="8" fill="#e0f2fe" stroke="#0284c7"/>
  <text x="144" y="70" text-anchor="middle" font-size="12.5" font-weight="700" fill="#075985">Attestation source</text>
  <text x="144" y="88" text-anchor="middle" font-size="11" fill="#0c4a6e">passport (Tier 1) or issuer (Tier 2/3)</text>
  <line x1="144" y1="100" x2="144" y2="126" stroke="#64748b" stroke-width="1.5" marker-end="url(#f4arr)"/>
  <rect x="28" y="128" width="232" height="52" rx="8" fill="#dbeafe" stroke="#2563eb" stroke-width="2.5"/>
  <text x="144" y="150" text-anchor="middle" font-size="12.5" font-weight="700" fill="#1e3a8a">Personhood commitment</text>
  <text x="144" y="168" text-anchor="middle" font-size="11" fill="#1e40af">secret s · nullifier n</text>
  <line x1="144" y1="180" x2="144" y2="206" stroke="#64748b" stroke-width="1.5" marker-end="url(#f4arr)"/>
  <rect x="28" y="208" width="232" height="52" rx="8" fill="#ccfbf1" stroke="#0d9488"/>
  <text x="144" y="230" text-anchor="middle" font-size="12.5" font-weight="700" fill="#115e59">Credential + ZK proof</text>
  <text x="144" y="248" text-anchor="middle" font-size="11" fill="#134e4a">reveals only predicates + pid</text>
  <rect x="452" y="52" width="244" height="240" rx="10" fill="none" stroke="#ef4444" stroke-dasharray="6 4"/>
  <text x="574" y="70" text-anchor="middle" font-size="11.5" fill="#b91c1c">even if these relying parties collude…</text>
  <rect x="470" y="84" width="208" height="46" rx="8" fill="#f8fafc" stroke="#94a3b8"/>
  <text x="574" y="112" text-anchor="middle" font-size="13" fill="#334155">RP A  →  <tspan font-weight="700" fill="#2563eb">pid_A</tspan></text>
  <rect x="470" y="156" width="208" height="46" rx="8" fill="#f8fafc" stroke="#94a3b8"/>
  <text x="574" y="184" text-anchor="middle" font-size="13" fill="#334155">RP B  →  <tspan font-weight="700" fill="#2563eb">pid_B</tspan></text>
  <rect x="470" y="228" width="208" height="46" rx="8" fill="#f8fafc" stroke="#94a3b8"/>
  <text x="574" y="256" text-anchor="middle" font-size="13" fill="#334155">RP C  →  <tspan font-weight="700" fill="#2563eb">pid_C</tspan></text>
  <path d="M260,234 C360,234 360,107 466,107" fill="none" stroke="#64748b" stroke-width="1.5" marker-end="url(#f4arr)"/>
  <path d="M260,234 C360,234 360,179 466,179" fill="none" stroke="#64748b" stroke-width="1.5" marker-end="url(#f4arr)"/>
  <path d="M260,234 C360,234 360,251 466,251" fill="none" stroke="#64748b" stroke-width="1.5" marker-end="url(#f4arr)"/>
  <text x="360" y="324" text-anchor="middle" font-size="12" fill="#475569">Every presentation is verifiable; the pseudonyms stay unlinkable across services — correlation remains infeasible even under collusion.</text>
</svg>
