<svg viewBox="0 0 760 232" width="760" height="232" style="max-width:100%;height:auto" xmlns="http://www.w3.org/2000/svg" font-family="ui-sans-serif, system-ui, -apple-system, Segoe UI, Roboto, Helvetica, Arial, sans-serif">
  <defs><marker id="f3arr" viewBox="0 0 10 10" refX="5" refY="5" markerWidth="6" markerHeight="6" orient="auto-start-reverse"><path d="M0,0 L10,5 L0,10 z" fill="#64748b"/></marker></defs>
  <rect x="0" y="0" width="760" height="232" rx="10" fill="#ffffff"/>
  <text x="24" y="26" font-size="15" font-weight="700" fill="#0f172a">Figure 3 · Credential lifecycle</text>
  <rect x="24" y="48" width="128" height="64" rx="8" fill="#e0f2fe" stroke="#0284c7"/>
  <text x="88" y="76" text-anchor="middle" font-size="12" font-weight="700" fill="#075985">Enrol</text>
  <text x="88" y="94" text-anchor="middle" font-size="10" fill="#0c4a6e">passport read /</text>
  <text x="88" y="106" text-anchor="middle" font-size="10" fill="#0c4a6e">issuer proofing</text>
  <line x1="152" y1="80" x2="168" y2="80" stroke="#64748b" stroke-width="1.5" marker-end="url(#f3arr)"/>
  <rect x="170" y="48" width="128" height="64" rx="8" fill="#dbeafe" stroke="#2563eb" stroke-width="2.5"/>
  <text x="234" y="76" text-anchor="middle" font-size="12" font-weight="700" fill="#1e3a8a">Commit</text>
  <text x="234" y="94" text-anchor="middle" font-size="10" fill="#1e40af">blinded (s, n)</text>
  <text x="234" y="106" text-anchor="middle" font-size="10" fill="#1e40af">anchored on-chain</text>
  <line x1="298" y1="80" x2="314" y2="80" stroke="#64748b" stroke-width="1.5" marker-end="url(#f3arr)"/>
  <rect x="316" y="48" width="128" height="64" rx="8" fill="#ccfbf1" stroke="#0d9488"/>
  <text x="380" y="76" text-anchor="middle" font-size="12" font-weight="700" fill="#115e59">Issue</text>
  <text x="380" y="94" text-anchor="middle" font-size="10" fill="#134e4a">W3C VC · SD-JWT /</text>
  <text x="380" y="106" text-anchor="middle" font-size="10" fill="#134e4a">mdoc / keyring</text>
  <line x1="444" y1="80" x2="460" y2="80" stroke="#64748b" stroke-width="1.5" marker-end="url(#f3arr)"/>
  <rect x="462" y="48" width="128" height="64" rx="8" fill="#fef3c7" stroke="#d97706"/>
  <text x="526" y="76" text-anchor="middle" font-size="12" font-weight="700" fill="#92400e">Present</text>
  <text x="526" y="94" text-anchor="middle" font-size="10" fill="#92400e">ZK proof · pid ·</text>
  <text x="526" y="106" text-anchor="middle" font-size="10" fill="#92400e">predicates only</text>
  <line x1="590" y1="80" x2="606" y2="80" stroke="#64748b" stroke-width="1.5" marker-end="url(#f3arr)"/>
  <rect x="608" y="48" width="128" height="64" rx="8" fill="#ede9fe" stroke="#7c3aed"/>
  <text x="672" y="76" text-anchor="middle" font-size="12" font-weight="700" fill="#4c1d95">Status</text>
  <text x="672" y="94" text-anchor="middle" font-size="10" fill="#5b21b6">private revocation</text>
  <text x="672" y="106" text-anchor="middle" font-size="10" fill="#5b21b6">(accumulator, ZK)</text>
  <line x1="234" y1="112" x2="234" y2="150" stroke="#94a3b8" stroke-width="1.2" stroke-dasharray="4 3" marker-end="url(#f3arr)"/>
  <line x1="672" y1="112" x2="672" y2="150" stroke="#94a3b8" stroke-width="1.2" stroke-dasharray="4 3" marker-end="url(#f3arr)"/>
  <rect x="24" y="152" width="712" height="52" rx="8" fill="#f1f5f9" stroke="#94a3b8"/>
  <text x="380" y="174" text-anchor="middle" font-size="12" font-weight="700" fill="#334155">BSV ledger</text>
  <text x="380" y="192" text-anchor="middle" font-size="11" fill="#475569">on-chain: blinded commitments · status anchors · nullifier sets — never plaintext PII</text>
</svg>
