<svg viewBox="0 0 760 300" width="760" height="300" style="max-width:100%;height:auto" xmlns="http://www.w3.org/2000/svg" font-family="ui-sans-serif, system-ui, -apple-system, Segoe UI, Roboto, Helvetica, Arial, sans-serif">
  <defs><marker id="f2arr" viewBox="0 0 10 10" refX="5" refY="5" markerWidth="6" markerHeight="6" orient="auto-start-reverse"><path d="M0,0 L10,5 L0,10 z" fill="#64748b"/></marker></defs>
  <rect x="0" y="0" width="760" height="300" rx="10" fill="#ffffff"/>
  <text x="24" y="26" font-size="15" font-weight="700" fill="#0f172a">Figure 2 · Tier progression — assurance accrues over one identity</text>
  <rect x="24" y="120" width="160" height="80" rx="8" fill="#f1f5f9" stroke="#94a3b8"/>
  <text x="104" y="142" text-anchor="middle" font-size="12.5" font-weight="700" fill="#334155">Tier 0 · bare key</text>
  <text x="104" y="162" text-anchor="middle" font-size="10.5" fill="#475569">adds: key control</text>
  <text x="104" y="190" text-anchor="middle" font-size="10.5" fill="#64748b">below Low / IAL1</text>
  <line x1="188" y1="160" x2="204" y2="160" stroke="#64748b" stroke-width="1.5" marker-end="url(#f2arr)"/>
  <rect x="208" y="100" width="160" height="100" rx="8" fill="#e0f2fe" stroke="#0284c7"/>
  <text x="288" y="122" text-anchor="middle" font-size="12.5" font-weight="700" fill="#075985">Tier 1 · self-read</text>
  <text x="288" y="142" text-anchor="middle" font-size="10.5" fill="#0c4a6e">+ genuine document, n</text>
  <text x="288" y="158" text-anchor="middle" font-size="10.5" fill="#0c4a6e">(free, no issuer)</text>
  <text x="288" y="190" text-anchor="middle" font-size="10.5" fill="#64748b">≈ Low / IAL1 · DTC-1</text>
  <line x1="372" y1="150" x2="388" y2="150" stroke="#64748b" stroke-width="1.5" marker-end="url(#f2arr)"/>
  <rect x="392" y="80" width="160" height="120" rx="8" fill="#dbeafe" stroke="#2563eb"/>
  <text x="472" y="102" text-anchor="middle" font-size="12.5" font-weight="700" fill="#1e3a8a">Tier 2 · issuer</text>
  <text x="472" y="122" text-anchor="middle" font-size="10.5" fill="#1e40af">+ accountable issuer,</text>
  <text x="472" y="138" text-anchor="middle" font-size="10.5" fill="#1e40af">verified binding,</text>
  <text x="472" y="154" text-anchor="middle" font-size="10.5" fill="#1e40af">revocation</text>
  <text x="472" y="190" text-anchor="middle" font-size="10.5" fill="#64748b">Substantial / IAL2</text>
  <line x1="556" y1="140" x2="572" y2="140" stroke="#64748b" stroke-width="1.5" marker-end="url(#f2arr)"/>
  <rect x="576" y="60" width="160" height="140" rx="8" fill="#c7d2fe" stroke="#4338ca"/>
  <text x="656" y="82" text-anchor="middle" font-size="12.5" font-weight="700" fill="#312e81">Tier 3 · in-person</text>
  <text x="656" y="102" text-anchor="middle" font-size="10.5" fill="#3730a3">+ in-person binding,</text>
  <text x="656" y="118" text-anchor="middle" font-size="10.5" fill="#3730a3">qualified party</text>
  <text x="656" y="190" text-anchor="middle" font-size="10.5" fill="#64748b">High / IAL3 · DTC-2/3</text>
  <rect x="24" y="220" width="712" height="56" rx="8" fill="#ecfeff" stroke="#0891b2"/>
  <text x="380" y="244" text-anchor="middle" font-size="12" font-weight="700" fill="#155e75">One persistent did:bsv + personhood commitment (s, n)</text>
  <text x="380" y="263" text-anchor="middle" font-size="11" fill="#0e7490">assurance is additive; scoped pseudonyms and relationships stay stable across upgrades</text>
</svg>
